<?xml version="1.0" standalone="no"?>
<!DOCTYPE svg PUBLIC "-//W3C//DTD SVG 20010904//EN"
 "http://www.w3.org/TR/2001/REC-SVG-20010904/DTD/svg10.dtd">
<svg version="1.0" xmlns="http://www.w3.org/2000/svg"
 width="294.000000pt" height="294.000000pt" viewBox="0 0 294.000000 294.000000"
 preserveAspectRatio="xMidYMid meet">
<metadata>
Created by potrace 1.14, written by Peter Selinger 2001-2017
</metadata>
<g transform="translate(0.000000,294.000000) scale(0.100000,-0.100000)"
fill="#000000" stroke="none">
<path d="M730 2065 l0 -105 -50 0 -50 0 0 -215 0 -215 -55 0 -55 0 0 55 0 55
-55 0 -55 0 0 105 0 105 -50 0 -50 0 0 -55 0 -55 -55 0 -55 0 0 55 0 55 -55 0
-55 0 0 -55 0 -55 55 0 55 0 0 -105 0 -105 55 0 55 0 0 -55 0 -55 105 0 105 0
0 -50 0 -50 55 0 55 0 0 -55 0 -55 50 0 50 0 0 -55 0 -55 -50 0 -50 0 0 -50 0
-50 -55 0 -55 0 0 -110 0 -110 55 0 55 0 0 55 0 55 50 0 50 0 0 55 0 55 55 0
55 0 0 50 0 50 55 0 c52 0 55 1 55 25 0 25 1 25 25 9 29 -19 45 -11 45 22 0
28 -25 43 -43 25 -17 -17 -27 -13 -27 9 0 17 7 20 50 20 l50 0 0 -55 0 -55 55
0 55 0 0 -160 0 -160 55 0 55 0 0 160 0 160 50 0 50 0 0 55 0 55 110 0 110 0
0 -55 0 -55 50 0 50 0 0 -160 0 -160 55 0 55 0 0 160 0 160 55 0 55 0 0 -160
0 -160 50 0 50 0 0 160 0 160 -50 0 -50 0 0 55 0 55 50 0 c47 0 50 -1 50 -26
0 -26 0 -26 -25 -10 -30 20 -45 14 -45 -19 0 -32 11 -37 43 -20 26 13 27 13
27 -11 0 -23 3 -24 55 -24 l55 0 0 -50 0 -50 55 0 55 0 0 -55 0 -55 50 0 50 0
0 -55 0 -55 55 0 55 0 0 110 0 110 -55 0 -55 0 0 50 0 50 -50 0 -50 0 0 55 0
55 50 0 50 0 0 55 0 55 55 0 55 0 0 50 0 50 105 0 105 0 0 55 0 55 55 0 55 0
0 105 0 105 55 0 55 0 0 55 0 55 -55 0 -55 0 0 -55 0 -55 -55 0 -55 0 0 55 0
55 -50 0 -50 0 0 -105 0 -105 -55 0 -55 0 0 -55 0 -55 -55 0 -55 0 0 215 0
215 -50 0 -50 0 0 105 0 105 -160 0 -160 0 0 -55 0 -55 -55 0 -55 0 0 -50 0
-50 -55 0 -55 0 0 50 0 50 -210 0 -210 0 0 -50 0 -50 -55 0 -55 0 0 50 0 50
-55 0 -55 0 0 55 0 55 -160 0 -160 0 0 -105z m1577 -501 c3 -21 -2 -33 -18
-42 -11 -7 -23 -12 -25 -9 -6 6 -12 86 -7 91 14 13 47 -14 50 -40z m-1176
-321 c-10 -17 -10 -16 -11 3 0 23 13 41 18 25 2 -6 -1 -18 -7 -28z m139 -88
l0 -55 -55 0 -55 0 0 55 0 55 55 0 55 0 0 -55z m530 0 l0 -55 -55 0 -55 0 0
55 0 55 55 0 55 0 0 -55z m77 -22 c-8 -9 -23 -13 -31 -10 -27 10 -18 24 16 25
28 1 30 -1 15 -15z"/>
<path d="M950 940 l0 -160 50 0 50 0 0 160 0 160 -50 0 -50 0 0 -160z"/>
</g>
</svg>
